<svg id="Layer_1" data-name="Layer 1" xmlns="http://www.w3.org/2000/svg" viewBox="0 0 512 512"><title>credit policies</title><path d="M417.371,376.8H366.323a6,6,0,0,0-5.74,4.25l-4.219,13.84a27.549,27.549,0,0,1-8.378-5.106l-8.563-7.623c-.123-.109-.25-.214-.381-.312a62.981,62.981,0,0,0-65.551-6.4l-3.547,1.715a35.09,35.09,0,0,1-15.189,3.481h-25.24L210.64,370.382a29.466,29.466,0,0,0-32.555,2.149l-2.364-1.274c-.045-.024-.089-.047-.134-.069-8.5-4.308-19.48-1.733-26.387,5.473l-.04-.021a26.688,26.688,0,0,0-35.585,9.731,6,6,0,0,0,1.744,8.041l89.424,61.4a5.918,5.918,0,0,0,.734.43,69.074,69.074,0,0,0,42.692,6.022l51.69-9.518c.127-.022.252-.05.377-.081a13.16,13.16,0,0,1,9.546,1.212l23.977,15.158-7.687,25.215a6,6,0,0,0,5.739,7.75h71.755a6,6,0,0,0,5.956-5.273l13.805-113.2a6,6,0,0,0-5.956-6.726Zm-212.674,4,.142.08,3.755,2.041a31.584,31.584,0,0,0-5.67,2.985L190.646,379.3A17.429,17.429,0,0,1,204.7,380.808Zm-34.592,1.054,23.959,12.91a31.539,31.539,0,0,0-2.579,4.7L160.576,382.8C163.632,380.977,167.3,380.474,170.105,381.862ZM316.044,443.64c-.09-.058-.183-.114-.277-.166a25.119,25.119,0,0,0-18.257-2.5l-51.5,9.481a56.971,56.971,0,0,1-34.839-4.788l-83.5-57.332a14.705,14.705,0,0,1,15.788-1.139l42.547,22.953,2.8,1.475c0,.2-.014.391-.014.589a6,6,0,0,0,6,6c.09,0,.181,0,.272-.006l29.337-1.327a139.038,139.038,0,0,1,25.332,1.17,6,6,0,1,0,1.646-11.887,151.266,151.266,0,0,0-27.52-1.271l-22.018,1a19.606,19.606,0,0,1,18.523-13.246h34.394a47.154,47.154,0,0,0,20.413-4.678l3.547-1.715a51.028,51.028,0,0,1,52.918,5.043l8.374,7.454a39.57,39.57,0,0,0,12.854,7.634l-15.473,50.749ZM398.253,490h-58.34l30.853-101.2h39.828Z"/><path d="M152.015,195.627V184.948h5.858a74.074,74.074,0,0,1,11.025.833L151.61,209.355a89.887,89.887,0,0,0,3.878,111.553,106.177,106.177,0,0,0,81.206,37.663h0A106.185,106.185,0,0,0,317.9,320.908a89.889,89.889,0,0,0,3.878-111.553l-17.453-23.8c0-.147.022-.289.022-.436a20.161,20.161,0,0,0-3.368-11.169,20.3,20.3,0,0,0,3.9-31.964,20.74,20.74,0,0,0,.225-29.1A19.4,19.4,0,0,0,297,80.384c9.669-5.256,15.578-16.368,15.578-30.855v-.55a6,6,0,0,0-6-6H287.45a153.73,153.73,0,0,1,8.988-18.445A9.109,9.109,0,0,0,288.625,10.9l-79.619-.838a9.144,9.144,0,0,0-6.855,2.829,8.88,8.88,0,0,0-1,10.768l3.756,5.961a122.5,122.5,0,0,1,7.263,13.362H207c-21.151,0-26.373,15.679-29.179,24.1a37.416,37.416,0,0,1-1.578,4.236c-6.237,3.816-11.924,5.672-17.37,5.672h-6.858V64.142a6,6,0,0,0-6-6H94.629a6,6,0,0,0-6,6V195.627a6,6,0,0,0,6,6h51.386A6,6,0,0,0,152.015,195.627ZM312.1,216.452a77.923,77.923,0,0,1-3.362,96.7,94.377,94.377,0,0,1-144.092,0,77.921,77.921,0,0,1-3.361-96.7l20.248-27.611a74.013,74.013,0,0,1,14.612,6.784c-14.767,12.47-13.907,31.818-10.895,41.356a6,6,0,0,0,11.443-3.613A35.168,35.168,0,0,1,195.68,220.9a23.583,23.583,0,0,1,13.065-19.362c10.638,3.484,21.932,3.876,33.481,3.876h13.981l1.428,2.577a57.4,57.4,0,0,1,7.082,31.677l-.121,1.837a6,6,0,0,0,5.591,6.383c.134.009.268.013.4.013a6,6,0,0,0,5.981-5.6l.122-1.837a69.353,69.353,0,0,0-6.563-34.382c3.465,1.32,13.967,7.038,15.956,28.162a6,6,0,0,0,5.967,5.438c.188,0,.379-.009.57-.027a6,6,0,0,0,5.411-6.536c-1.26-13.375-5.417-22.228-10.1-28.083a20.317,20.317,0,0,0,11.156-6.328ZM300.167,54.979c-1.061,6.992-4.721,16.747-16.877,16.747h-4.368a153.885,153.885,0,0,1,4.221-16.748h17.024ZM219.215,22.167a6.053,6.053,0,0,0,.679.339c9.466,3.924,17.075,16.188,15.7,25.274a6,6,0,0,0,5.924,7,6,6,0,0,0,5.92-5.072c1.434-9.148-2.128-19.423-8.6-27.337l18.965.2c-2.021,5.875-3.793,14.093-2.259,22.609a6,6,0,0,0,5.9,4.937,6.084,6.084,0,0,0,1.763-.263,6.157,6.157,0,0,0,4.117-6.985c-1.378-8.015,1.494-16.088,3.314-20.163l13.017.137a165.08,165.08,0,0,0-17.627,52.943l-.659,4.283-25.75.478a4.737,4.737,0,0,1-3.266-1.734,158.837,158.837,0,0,0-21.994-56.7Zm-67.2,66.822h6.858c7.9,0,15.827-2.551,24.22-7.8,3.381-2.113,4.647-5.915,6.114-10.317,3.1-9.306,6.19-15.894,17.793-15.894h10.14c2.147,5.9,3.948,11.943,5.505,18.062v2.665a5.9,5.9,0,0,0,.036.651c.974,8.928,8.592,16.192,16.981,16.192h.111l51.8-.962a7.43,7.43,0,0,1-.048,14.86l-21.145.065a6,6,0,0,0,0,12h19.772a8.8,8.8,0,0,1,0,17.605H270.385a6,6,0,0,0,0,12H290.6a8.356,8.356,0,0,1,0,16.711h-29.15a6,6,0,0,0,0,12h22.6a8.295,8.295,0,0,1,0,16.589H242.226c-14.69,0-27.765-.568-39.014-7.547a85.937,85.937,0,0,0-45.339-12.921h-5.858Zm-12,100.638H100.629V70.142h39.386Z"/><path d="M239.667,266.646a7.589,7.589,0,0,1,7.582,7.581,6,6,0,0,0,12,0A19.609,19.609,0,0,0,245.667,255.6v-2.412a6,6,0,0,0-12,0V255.6a19.577,19.577,0,0,0,6,38.214,7.579,7.579,0,0,1,.1,15.158c-.033,0-.064,0-.1,0s-.063,0-.1,0a7.588,7.588,0,0,1-7.485-7.577,6,6,0,0,0-12,0,19.611,19.611,0,0,0,13.581,18.633v3.029a6,6,0,0,0,12,0v-3.029a19.577,19.577,0,0,0-6-38.214,7.582,7.582,0,0,1,0-15.163Z"/></svg>