<svg id="Layer_5" enable-background="new 0 0 64 64" height="512" viewBox="0 0 64 64" width="512" xmlns="http://www.w3.org/2000/svg"><path d="m36 20c-.551 0-1-.448-1-1h-2c0 1.654 1.346 3 3 3v2h2v-2h3v-3c0-1.654-1.346-3-3-3h-2c-.551 0-1-.448-1-1v-1h3c.551 0 1 .448 1 1h2c0-1.654-1.346-3-3-3v-2h-2v2h-3v3c0 1.654 1.346 3 3 3h2c.551 0 1 .448 1 1v1z"/><path d="m26.754 21c1.638 4.217 5.658 7 10.246 7 6.065 0 11-4.935 11-11s-4.935-11-11-11c-4.588 0-8.608 2.783-10.246 7h-11.865c1.301-1.272 2.111-3.042 2.111-5 0-3.859-3.14-7-7-7s-7 3.141-7 7c0 2.314 1.134 4.364 2.87 5.639-2.86 1.221-4.87 4.06-4.87 7.361v38c0 2.206 1.794 4 4 4 1.2 0 2.266-.542 3-1.382.734.84 1.8 1.382 3 1.382 2.206 0 4-1.794 4-4v-38zm10.246-13c4.962 0 9 4.037 9 9s-4.038 9-9 9c-3.64 0-6.841-2.143-8.253-5.419 1.328-.651 2.253-2.004 2.253-3.581s-.925-2.93-2.253-3.581c1.412-3.276 4.613-5.419 8.253-5.419zm-32 0c0-2.757 2.243-5 5-5s5 2.243 5 5-2.243 5-5 5-5-2.243-5-5zm8 51c0 1.103-.897 2-2 2s-2-.897-2-2v-3-16.859c0-1.005.5-1.938 1.336-2.496l1.219-.812-1.109-1.664-1.219.811c-1.394.93-2.227 2.486-2.227 4.161v16.859 3c0 1.103-.897 2-2 2s-2-.897-2-2v-38c0-3.309 2.691-6 6-6h18c1.103 0 2 .897 2 2s-.897 2-2 2h-16v2h2z"/><path d="m55 61h-4v-14h-8v14h-4v-18h-8v18h-4v-10h-8v12h44v-28h-8zm-30 0h-4v-8h4zm20-12h4v12h-4zm-12-4h4v16h-4zm24-8h4v24h-4z"/><path d="m49.019 37.567c-.595-.352-1.279-.567-2.019-.567-1.405 0-2.637.731-3.351 1.829l-4.676-1.559c.006-.091.027-.177.027-.27 0-2.206-1.794-4-4-4s-4 1.794-4 4c0 .46.094.895.237 1.307l-5.584 3.723c-.707-.633-1.631-1.03-2.653-1.03-2.206 0-4 1.794-4 4s1.794 4 4 4 4-1.794 4-4c0-.46-.094-.895-.237-1.307l5.584-3.723c.707.633 1.631 1.03 2.653 1.03 1.405 0 2.637-.731 3.351-1.829l4.676 1.559c-.006.091-.027.177-.027.27 0 2.206 1.794 4 4 4s4-1.794 4-4c0-.74-.215-1.424-.567-2.019l6.548-6.548c.595.352 1.279.567 2.019.567 2.206 0 4-1.794 4-4s-1.794-4-4-4-4 1.794-4 4c0 .74.215 1.424.567 2.019zm-26.019 9.433c-1.103 0-2-.897-2-2s.897-2 2-2 2 .897 2 2-.897 2-2 2zm12-8c-1.103 0-2-.897-2-2s.897-2 2-2 2 .897 2 2-.897 2-2 2zm12 4c-1.103 0-2-.897-2-2s.897-2 2-2 2 .897 2 2-.897 2-2 2zm12-16c1.103 0 2 .897 2 2s-.897 2-2 2-2-.897-2-2 .897-2 2-2z"/></svg>