<?xml version="1.0" encoding="UTF-8"?>
<svg xmlns="http://www.w3.org/2000/svg" xmlns:xlink="http://www.w3.org/1999/xlink" width="80pt" height="80pt" viewBox="0 0 80 80" version="1.1">
<g id="surface1">
<path style=" stroke:none;fill-rule:nonzero;fill:rgb(0%,0%,0%);fill-opacity:1;" d="M 40 80 C 30.527344 80 21.34375 76.628906 14.132812 70.511719 C 12.441406 69.078125 10.851562 67.484375 9.414062 65.78125 C 3.34375 58.585938 0 49.429688 0 40 C 0 29.316406 4.160156 19.269531 11.714844 11.714844 C 19.269531 4.160156 29.316406 0 40 0 C 50.683594 0 60.730469 4.160156 68.285156 11.714844 C 75.839844 19.269531 80 29.316406 80 40 C 80 49.429688 76.65625 58.585938 70.585938 65.78125 C 69.148438 67.484375 67.558594 69.078125 65.867188 70.511719 C 58.65625 76.628906 49.472656 80 40 80 Z M 40 5 C 20.699219 5 5 20.699219 5 40 C 5 48.25 7.925781 56.261719 13.234375 62.558594 C 14.496094 64.046875 15.886719 65.441406 17.367188 66.699219 C 23.675781 72.050781 31.710938 75 40 75 C 48.289062 75 56.324219 72.050781 62.628906 66.699219 C 64.113281 65.441406 65.503906 64.046875 66.765625 62.554688 C 72.074219 56.261719 75 48.25 75 40 C 75 20.699219 59.300781 5 40 5 Z M 40 5 "/>
<path style=" stroke:none;fill-rule:nonzero;fill:rgb(0%,0%,0%);fill-opacity:1;" d="M 40 40 C 31.730469 40 25 33.269531 25 25 C 25 16.730469 31.730469 10 40 10 C 48.269531 10 55 16.730469 55 25 C 55 33.269531 48.269531 40 40 40 Z M 40 15 C 34.484375 15 30 19.484375 30 25 C 30 30.515625 34.484375 35 40 35 C 45.515625 35 50 30.515625 50 25 C 50 19.484375 45.515625 15 40 15 Z M 40 15 "/>
<path style=" stroke:none;fill-rule:nonzero;fill:rgb(0%,0%,0%);fill-opacity:1;" d="M 64.25 71.105469 C 64.046875 71.105469 63.84375 71.082031 63.640625 71.03125 C 62.300781 70.695312 61.488281 69.335938 61.824219 67.996094 C 62.273438 66.210938 62.5 64.359375 62.5 62.5 C 62.5 50.269531 52.554688 40.175781 40.328125 40 L 39.671875 40 C 27.445312 40.175781 17.5 50.269531 17.5 62.5 C 17.5 64.359375 17.726562 66.210938 18.175781 67.996094 C 18.511719 69.335938 17.699219 70.695312 16.359375 71.03125 C 15.019531 71.367188 13.664062 70.554688 13.328125 69.214844 C 12.777344 67.027344 12.5 64.769531 12.5 62.5 C 12.5 55.222656 15.316406 48.363281 20.425781 43.183594 C 25.535156 38.007812 32.347656 35.101562 39.609375 35 C 39.621094 35 39.632812 35 39.644531 35 L 40.355469 35 C 40.367188 35 40.378906 35 40.390625 35 C 47.652344 35.101562 54.464844 38.007812 59.574219 43.183594 C 64.683594 48.363281 67.5 55.222656 67.5 62.5 C 67.5 64.769531 67.222656 67.027344 66.671875 69.214844 C 66.386719 70.351562 65.371094 71.105469 64.25 71.105469 Z M 64.25 71.105469 "/>
</g>
</svg>
